<svg xmlns="http://www.w3.org/2000/svg" width="80" height="80" viewBox="0 0 80 80">
    <path fill="#051E3D" fill-rule="evenodd" d="M69.19 33.576c.625-.469 1.093-1.25 1.093-2.03 0-1.248-1.093-2.341-2.342-2.341-1.248 0-2.341 1.093-2.341 2.341 0 .625.312 1.093.624 1.561l-1.092.937-.065-.097-10.238 9.619c-.468.468-1.092.78-1.873.624-.78-.156-1.405-.624-1.717-1.249l-1.249-2.497-.156-.156-7.336-14.205c.468-.312.936-.468 1.404-.78l6.557 13.112 3.59-6.556c.156-.313.312-.469.624-.469.156 0 .468.156.625.312l3.902 5.62 5.114-4.805-.02-.07a3.204 3.204 0 0 1-.098-.865v-.192a3.865 3.865 0 0 1 3.902-3.902c2.185 0 3.902 1.717 3.746 4.058 0 1.717-1.249 3.278-2.966 3.747l.312-1.25v-.155l-.312 1.249-5.776 27.317c-.312 1.092-1.248 1.873-2.341 1.873h-41.21a2.364 2.364 0 0 1-2.341-2.03l-4.995-27.629-.024-.164-.161-.052a3.693 3.693 0 0 1-2.464-3.326l-.005-.204c-.156-.624 0-1.093.312-1.405.937-2.03 3.122-2.966 5.151-2.03 2.03.937 2.966 3.123 2.03 5.152l5.307 4.839 3.902-5.62c.157-.312.313-.468.625-.468s.468.156.624.469l3.434 6.556 6.556-13.425-.2-.143a4.787 4.787 0 0 1-1.048-1.106c-1.717-2.497-1.093-5.931 1.405-7.648 2.497-1.717 5.931-1.093 7.648 1.405 1.717 2.497 1.093 5.931-1.405 7.648l-.234.156c-.39.256-.78.495-1.17.625-1.25.468-2.498.468-3.59 0l-8.43 17.014c-.312.625-.937 1.093-1.717 1.25-.78.155-1.561-.157-2.03-.625l-10.614-9.834c-.624.624-1.405.936-2.341 1.092l2.653 14.517h4.215c.156-2.029 1.873-3.59 3.902-3.59 2.03 0 3.747 1.561 3.903 3.59h6.4l5.307-7.18 5.464 7.18h6.243c.157-2.029 1.874-3.59 3.903-3.59 2.03 0 3.746 1.561 3.902 3.59h4.527l3.1-13.954c-.857-.31-1.569-.759-2.007-1.343l1.092-1.093c.313.312.781.625 1.405.937l-.17-.088.014-.068h.469c.468 0 .78-.156 1.092-.469zm-7.492 26.692H18.302l.313 1.717c.156.313.468.625.78.625h41.21c.312 0 .624-.312.78-.625l.313-1.717zm-2.186-9.522c-.468 1.717-2.03 2.81-3.746 2.81-1.717 0-3.278-1.093-3.746-2.654h-7.181l-4.683 6.244-4.683-6.244h-7.18v-.156c-.469 1.717-2.03 2.81-3.747 2.81s-3.278-1.093-3.746-2.654h-4.215l1.405 7.805h44.02l1.873-7.805h-4.37zM40.156 44.66l-3.746 4.995 3.746 4.995 3.746-4.995-3.746-4.995zm15.61 2.653c-1.249 0-2.342 1.093-2.342 2.342 0 1.248 1.093 2.341 2.342 2.341s2.341-1.093 2.341-2.341c0-1.25-1.092-2.342-2.341-2.342zm-31.22 0c-1.248 0-2.341 1.093-2.341 2.342 0 1.248 1.093 2.341 2.341 2.341 1.25 0 2.342-1.093 2.342-2.341 0-1.25-1.093-2.342-2.342-2.342zM13.463 28.58c-1.248 0-2.341 1.093-2.341 2.342 0 .624.312 1.249.78 1.717.469.312.937.624 1.561.624l.176-.007c.41-.034.82-.188 1.23-.46.468-.47.624-.937.78-1.406h.156v-.468c0-1.405-1.093-2.342-2.342-2.342zM40.78 17.03a3.865 3.865 0 0 0-3.902 3.902c0 1.092.468 2.185 1.561 3.122l.234.143c.39.22.78.351 1.17.481a4.455 4.455 0 0 0 2.03 0c.468 0 .937-.312 1.405-.624l.181-.16c.816-.767 1.224-1.797 1.224-2.962a3.865 3.865 0 0 0-3.903-3.903z"/>
</svg>
