<svg xmlns="http://www.w3.org/2000/svg" width="80" height="80" viewBox="0 0 80 80">
    <path fill="#051E3D" fill-rule="evenodd" d="M55.759 13.782c1.565 0 2.794 1.342 2.794 2.794v42.471c0 1.341-.894 2.57-2.235 2.794a2.871 2.871 0 0 1-2.236 2.235c-.335 1.342-1.453 2.236-2.794 2.236H24.465a2.767 2.767 0 0 1-2.794-2.794v-42.47c0-1.342.894-2.46 2.347-2.795a2.871 2.871 0 0 1 2.235-2.235c.223-1.23 1.341-2.236 2.682-2.236zm-31.853 5.7c-.67.224-1.118.894-1.118 1.565v42.47c0 .895.783 1.677 1.677 1.677h26.823c.67 0 1.341-.447 1.565-1.118H26.7a2.767 2.767 0 0 1-2.794-2.794zm2.235-2.235c-.447.112-.894.559-1.006 1.006-.111.223-.111.335-.111.559v42.47c0 .894.782 1.677 1.676 1.677h26.824c.223 0 .335 0 .558-.112.447-.112.783-.559 1.006-1.006H28.935a2.767 2.767 0 0 1-2.794-2.794zM55.76 14.9H28.935c-.67 0-1.34.447-1.564 1.118-.112.223-.112.335-.112.558v42.471c0 .894.782 1.677 1.676 1.677H55.76c.223 0 .335 0 .559-.112.67-.224 1.117-.894 1.117-1.565v-42.47c0-.895-.782-1.677-1.676-1.677zM42.794 39.712c.559-.112 1.118 0 1.565.223.335.112.67.336 1.006.67.335.336.559.671.559 1.119.111.335.223.782.223 1.117 0 .335-.112.783-.223 1.118-.112.335-.336.67-.56 1.006-.223.223-.67.559-1.005.67-.559.112-1.006.224-1.565.224H40.56v3.465h-2.124v-9.612zm.112 1.564h-2.347v2.906h2.347c.223 0 .335-.111.559-.223a.873.873 0 0 0 .447-.447c.223-.56.223-1.118 0-1.565a.873.873 0 0 0-.447-.447.854.854 0 0 0-.56-.224zM40.112 26.3l2.235 6.594 2.124-6.594h3.017v9.612h-2.012v-6.818l-2.347 6.818h-1.564l-2.347-6.706h-.112v6.706h-1.9V26.3h2.906z"/>
</svg>
