<svg xmlns="http://www.w3.org/2000/svg" width="71" height="57" viewBox="0 0 71 57">
  <g fill="none" fill-rule="evenodd" transform="translate(-1 -2)">
    <path fill="#051E3D" d="M36.4997422 26C43.3586944 26 49.3031195 30.368 51.3608052 36.528 51.9323845 38.32 50.67491 40 48.8458561 40L24.2679443 40C22.3245746 40 21.0671 38.32 21.6386794 36.528 23.696365 30.48 29.6407901 26 36.4997422 26zM36.4997422 28.576C30.8982647 28.576 25.8683665 32.16 24.1536285 37.312 24.1536285 37.424 24.1536285 37.536 24.2679443 37.536L48.8458561 37.536C48.8458561 37.536 48.9601719 37.424 48.8458561 37.312 47.1311181 32.16 42.1012198 28.576 36.4997422 28.576zM36 7C40.7357143 7 44.5 10.8857143 44.5 15.5 44.5 20.2357143 40.7357143 24 36 24 31.3857143 24 27.5 20.2357143 27.5 15.5 27.5 10.8857143 31.3857143 7 36 7zM36 9.79285714C32.8428571 9.79285714 30.2928571 12.3428571 30.2928571 15.5 30.2928571 18.6571429 32.8428571 21.2071429 36 21.2071429 39.1571429 21.2071429 41.7071429 18.6571429 41.7071429 15.5 41.7071429 12.3428571 39.1571429 9.79285714 36 9.79285714zM56.8734005 18C63.5617251 18 69.3582731 22.368 71.3647705 28.528 71.9221309 30.208 70.6959381 32 68.8009128 32L52.1915733 32C50.5194922 28.64 47.8441623 25.952 44.5 24.272 47.2868019 20.464 51.8571571 18 56.8734005 18zM48.4015227 23.712C50.5194922 25.28 52.3030454 27.184 53.7521823 29.424L68.8009128 29.424C68.9123848 29.424 68.9123848 29.424 68.9123848 29.312 67.2403037 24.16 62.3355323 20.464 56.8734005 20.464 53.7521823 20.464 50.7424363 21.696 48.4015227 23.712zM56 0C60.6142857 0 64.5 3.76428571 64.5 8.5 64.5 13.1142857 60.6142857 17 56 17 51.2642857 17 47.5 13.1142857 47.5 8.5 47.5 3.76428571 51.2642857 0 56 0zM56 2.79285714C52.8428571 2.79285714 50.2928571 5.34285714 50.2928571 8.5 50.2928571 11.6571429 52.8428571 14.2071429 56 14.2071429 59.1571429 14.2071429 61.7071429 11.6571429 61.7071429 8.5 61.7071429 5.34285714 59.1571429 2.79285714 56 2.79285714zM15.1232832 18C20.1408711 18 24.7124512 20.464 27.5 24.272 24.1549414 25.952 21.4788945 28.64 19.8063653 32L3.19257426 32C1.40854301 32 .0705195723 30.208.628029338 28.528 2.63506449 22.368 8.43316607 18 15.1232832 18zM18.2453379 29.424C19.6948633 27.184 21.4788945 25.28 23.5974316 23.712 21.2558907 21.696 18.2453379 20.464 15.1232832 20.464 9.65968751 20.464 4.7536016 24.16 3.0810723 29.312 3.0810723 29.424 3.0810723 29.424 3.19257426 29.424L18.2453379 29.424zM16 0C20.7357143 0 24.5 3.76428571 24.5 8.5 24.5 13.1142857 20.7357143 17 16 17 11.3857143 17 7.5 13.1142857 7.5 8.5 7.5 3.76428571 11.3857143 0 16 0zM16 2.79285714C12.8428571 2.79285714 10.2928571 5.34285714 10.2928571 8.5 10.2928571 11.6571429 12.8428571 14.2071429 16 14.2071429 19.1571429 14.2071429 21.7071429 11.6571429 21.7071429 8.5 21.7071429 5.34285714 19.1571429 2.79285714 16 2.79285714z" transform="translate(.5 19)"/>
    <path fill="#EBA211" d="M13.1898566,2.81652719 L14.8192534,8.74185495 L20.8859806,8.71630596 C21.9539903,8.71181049 22.4126474,10.0697153 21.5606495,10.7137374 L16.5659887,14.4891834 L18.6538436,20.5252854 C19.0079449,21.5490115 17.8373338,22.4225628 16.9567403,21.7917238 L12.1187612,18.3258955 L7.28453554,21.7915052 C6.42170445,22.4100605 5.2658227,21.5820324 5.57389552,20.5660702 L7.38968932,14.5779474 L2.42962864,10.7064918 C1.596417,10.0561486 2.05629755,8.71953395 3.11326866,8.71953395 L9.12082844,8.71953395 L11.0621887,2.76663689 C11.4037983,1.71905142 12.8977237,1.7540815 13.1898566,2.81652719 Z" transform="translate(25)"/>
  </g>
</svg>
