<svg xmlns="http://www.w3.org/2000/svg" width="80" height="80" viewBox="0 0 80 80">
    <path fill="#051E3D" fill-rule="evenodd" d="M40 2c6.278 0 12.557 1.652 18.009 4.626h.495l.33.33.419.242C70.9 14.026 78 26.448 78 40c0 20.983-17.017 38-38 38S2 60.983 2 40 19.017 2 40 2zm.33 61.13l-3.139 1.653-.165.165-6.278 3.304a74.978 74.978 0 0 0 3.47 7.435c1.652.33 3.469.496 5.121.496l5.783-2.974L40.33 63.13zm5.287 11.235l-3.139 1.652c1.487 0 2.974-.165 4.296-.495l-1.157-1.157zm-7.765-8.756c2.809 0 5.122 2.313 5.122 5.287 0 2.808-2.313 5.121-5.122 5.121-2.974 0-5.287-2.313-5.287-5.121 0-2.974 2.478-5.287 5.287-5.287zm-7.6 5.287c-1.322.826-2.809 1.652-4.295 2.478 1.982.826 4.295 1.487 6.443 1.983-.496-.992-1.322-2.314-2.148-4.461zm30.07-6.444c-3.8 3.635-8.261 6.774-12.887 9.252l1.322 1.322c5.286-1.322 10.243-3.8 14.373-7.27zm-22.47 2.478c-2.148 0-3.8 1.653-3.8 3.8 0 2.148 1.652 3.8 3.8 3.8 2.148 0 3.8-1.652 3.8-3.8l-.005-.2c-.099-2.049-1.714-3.6-3.795-3.6zm0 1.653c1.157 0 2.148.99 2.148 2.147l-.006.15c-.08 1.091-1.036 1.998-2.142 1.998-1.156 0-2.148-.991-2.148-2.148 0-1.156.992-2.147 2.148-2.147zm-8.426.165l-5.948 3.304.826.496a44.359 44.359 0 0 0 5.453-2.974l-.33-.826zm28.417-7.27a49.182 49.182 0 0 1-12.39 9.418l.66 1.321C50.904 69.904 55.2 66.765 59 62.8zm-40.808-5.121v5.947l.165.166 5.122 8.26 1.817-.99-7.104-13.383zm36.678 0a37.612 37.612 0 0 1-11.07 8.756l2.314 4.791c4.46-2.313 8.59-5.452 12.226-9.252-1.322-1.487-2.479-2.974-3.47-4.295zm-36.678 9.086v2.479c.991.66 1.817 1.321 2.808 1.982l-2.808-4.46zm0-17.843v5.948l8.26 15.53 3.305-1.982c-.33 0-.496-.166-.826-.33-.661-.496-.661-1.323-.165-1.818l-4.626-1.652 1.652-4.461h-.165l-.124-.008c-.617-.075-1.198-.694-1.198-1.314 0-.33.165-.496.33-.826l-4.626-1.652 1.652-4.461h-.165l-.124-.008c-.617-.075-1.198-.694-1.198-1.314 0-.33.166-.495.33-.826l-2.312-.826zm4.78-4.267l-1.641 4.432.124.006c.617.057 1.198.541 1.198 1.316 0 .33-.166.66-.33.991l4.625 1.652-1.652 4.461h.165c.826 0 1.487.496 1.487 1.322 0 .33-.165.66-.33.991l4.626 1.653-1.652 4.46h.165l.124.008c.617.075 1.198.695 1.198 1.314 0 .33-.165.661-.33.826l2.973-1.652-9.417-20.983c-.386-.128-.871-.357-1.223-.685l-.11-.112zm54.202-7.629H66.012c-.746.003-.899.064-.899 1.653v5.286c-.33 3.635-3.304 6.444-6.94 6.444h-1.44c-2.37 0-4.532.025-5.168.66-.165 0-.165.166-.165.331.33 1.322 6.774 9.252 13.052 16.522.991-.991 1.983-1.817 2.809-3.304l-.165-.166c-2.809-3.304-5.783-6.773-7.93-9.582-.166-.165-.331-.496-.166-.661 0-.165.33-.33.496-.33 5.121-.661 9.087-4.957 9.417-10.079V40c0-.33.33-.66.66-.66h6.61v-.992l-.112-.006c-.433-.046-.714-.363-.714-.82 0-.33.33-.826.826-.826l-.166-.992zM15.547 46.94L13.4 49.087v15.365c.496.661 1.322 1.322 2.148 1.983V46.939zm11.731-2.643c-.66.165-1.487.165-2.148.165h-.495l9.087 20.156 1.487-.826-4.296-10.574zm24.452 9.417c-2.973 3.47-6.443 6.444-10.243 8.922l.496 1.156c4.295-2.148 7.765-4.956 10.739-8.591l-.992-1.487zm-26.104 6.278l-.991 2.644 2.643.991.992-2.643-2.644-.992zm13.713-.495l-2.643 2.643.495 1.157 2.644-1.322c0-.165.165-.33.33-.496l.826-.495c-.165-.166-.33-.166-.495-.33l-1.157-1.157zm36.844-18.34h-5.948v1.983c-.33 5.452-4.13 9.913-9.418 11.235 2.148 2.478 4.626 5.617 7.27 8.591l.344-.415c.67-.815 1.237-1.544 1.804-2.393l.165-1.322-2.643-.661 1.321-1.983-2.148-1.652 2.148-1.652-1.321-2.313 2.643-.661-.496-2.643 2.644.33.66-2.643 2.314 1.321.165-.165c.33-1.652.496-3.304.496-4.956zM9.765 58.175v1.817c.661.992 1.322 1.818 2.148 2.809v-2.313l-2.148-2.313zm51.383.33c.33 0 .66.33.826.826 0 .496-.33.992-.826.992h-.165c-.496 0-.826-.496-.826-.992 0-.495.495-.826.99-.826zm-24.122-1.652l-1.983 1.818.661 1.487 2.148-2.148-.33-.33c-.165-.331-.33-.496-.496-.827zm3.635-.165l-1.652.496 2.478 2.478.33-1.983c-.495-.165-.99-.495-1.156-.991zm2.809-.165c-.166.495-.496.991-.992 1.156l.661 1.652 2.478-2.478zM9.765 54.539v1.818l2.148 2.147v-1.652L9.765 54.54zm32.218-10.574l-9.087 9.087 1.817 4.296 2.974-2.974.165-.165 2.644-2.644c.495-.495.991-.66 1.652-.66l.176.004c.575.028 1.025.206 1.476.656l2.809 2.809c.33.496.66.991.66 1.487.992-.991 2.148-2.148 3.305-3.47l-8.591-8.426zM8.113 23.148c-5.617 10.574-5.617 23.46.165 34.035v-11.73c-.991-.166-1.652-1.157-1.652-2.149v-4.13c.165-.826.496-1.652 1.322-1.983-.661-.66-.991-1.487-.991-2.313V29.6c.008-1.721.136-3.469 2.313-3.313v-.33l-.01-.062c-.038-.107-.18-.127-.32-.269-.662-.496-.827-1.322-.827-2.148zm32.878 29.904l-2.148 2.313-.165.165 1.983.33c.165-.495.496-.99.991-1.156l-.66-1.652zm1.652-.33l-.33 1.982c.496.166.991.496 1.157.992l1.652-.496-2.479-2.478zm-21.147-1.157l-.992 2.644 2.644.991.991-2.643-2.643-.992zm-11.73-.991v1.983l2.147 2.313v-1.983l-2.148-2.313zm45.6.33a.826.826 0 1 1 0 1.653.826.826 0 0 1 0-1.653zM40.99 42.313h-2.974l-6.774 6.774.827 2.148 8.921-8.922zM9.765 47.104v1.653l2.148 2.147v-1.652l-2.148-2.148zm36.348-4.791h-3.14l6.94 6.94c.165-.331.33-.662.496-.827.33-.33.66-.496 1.156-.66l-5.452-5.453zm18.835 4.791a.826.826 0 1 1 0 1.653.826.826 0 0 1 0-1.653zm-50.391-1.321h-3.635l1.817 1.817 1.818-1.817zm19.99-5.618l-1.486.992c-1.157 1.156-2.644 1.982-4.13 2.643l1.486 3.635 5.618-5.618zm26.931-3.139h-.165c-1.652 1.322-7.104 4.791-11.07 4.791l-1.817.33 5.287 5.288c.991-.165 2.148-.165 3.47-.165h.99a5.173 5.173 0 0 0 5.123-4.461v-4.461l-1.818-1.322zM18.687 43.8c-.165.826-.826 1.487-1.652 1.817v.661l1.982.661.992-2.643zm-5.948-1.487L9.6 44.13h6.278l-3.139-1.817zm-4.791-2.974v4.13l3.47-1.982-3.47-2.148zm9.417.165l-3.304 1.818 3.304 1.982v-3.8zm1.405-1.651h-.579c.33.33.496.825.496 1.32v2.975l3.084 1.136-.11-.145c-.622-1.4-.659-3.092-.11-4.663l.11-.293v-.166c-1.157-.165-2.313-.165-3.47-.165zm22.552-7.6c-1.487 1.486-3.305 2.643-5.452 3.138-1.487.33-2.81.992-3.966 1.818-2.478 2.313-4.46 4.791-6.278 7.6h.496c2.148-2.313 4.46-4.626 7.104-6.774 1.157-.826 2.313-1.487 3.635-1.818 1.652-.495 3.304-1.487 4.296-2.974v-.33zm-3.965-18.34h-6.61c0 .826-.164 1.652-.33 2.313.166-.165.33-.165.496-.33 1.652-1.157 6.609-.992 6.609-.992l-2.809.992c-1.156.495-2.478.991-3.8 1.321h-.826c-.33 1.157-.826 2.313-1.157 3.47l-.165.33c-.66 1.653-1.156 3.635-1.156 5.453h1.156c.496-.166.826-.496 1.322-.827-.165-.165-.165-.165-.33-.165h-.166c-.495 0-.826-.33-.826-.826 0-.495.33-.991.826-.991.826 0 1.487.33 1.983.826.33.33.496.826.496 1.322 0 .33-.166.66-.496.826.496.165.991.495 1.322.826l.33.33c2.148 1.983 2.809 2.148 2.974 2.148.165 0 .33-.165.33-.165l-.165-.165c-.33-.166-.495-.496-.33-.826l.165-.496h.496a3.466 3.466 0 0 1 2.147 2.148c.33.826-.165 1.652-.826 2.148-.66.495-1.487.66-2.313.66-.66 0-1.487-.165-2.147-.33-5.91 2.644-8.599 8.8-9.308 11.305l-.039.139.297-.502c1.614-2.683 3.484-5.117 5.719-7.303l.522-.5c1.156-.991 2.643-1.652 4.295-2.148 2.314-.66 4.461-1.487 5.618-3.634l.165-.166c-.165-3.304-.826-6.608-1.652-9.913-.661-1.982-1.487-4.956-1.817-6.278zm3.965 21.148c-1.157 1.156-2.644 1.817-4.13 2.313-1.157.33-2.314.826-3.305 1.487-1.983 1.487-3.8 3.304-5.617 5.122 1.321-.661 2.643-1.322 3.634-2.313l1.487-.992.57-.349c2.474-1.49 5.071-2.684 7.526-3.45 0-.496-.165-1.157-.165-1.818zm-11.565-3.8c-2.148 2.478-5.783 7.435-6.444 9.582-.33.827-.33 1.818-.33 2.644 1.321-4.626 4.46-8.757 8.756-11.235-.66-.165-1.322-.66-1.982-.991zm-13.383 9.087H8.939l3.8 2.313 3.635-2.313zm40.148-26.435H39.174c.33 1.487 1.156 3.965 1.652 5.617 1.157 4.296 1.817 8.592 2.148 13.053.33 1.982.496 3.634.66 4.79.166.827.496 1.653.992 2.314.826-1.652 1.322-3.47 1.157-5.452-.826-5.122-1.983-10.078-3.635-15.035l-.037-.09c-.097-.3.067-.586.367-.736l.09-.037c.3-.097.586.067.736.367 1.653 5.122 2.974 10.244 4.13 15.861.166 2.313-.33 4.626-1.486 6.609.66.496 1.652.826 2.478.991.991-2.808 1.322-5.617 1.322-8.591-.991-4.791-2.313-9.748-3.965-14.374l-.037-.09c-.097-.3.067-.586.367-.736.33-.165.66 0 .826.33a113.642 113.642 0 0 1 3.965 14.705c.166 2.974-.33 6.113-1.321 8.921h.66c.661 0 1.322-.165 1.983-.33.826-3.14 1.157-6.443 1.157-9.748-.992-4.626-2.479-9.252-4.461-13.548-.165-.495 0-.826.33-.991.33-.165.661 0 .826.33a67.99 67.99 0 0 1 4.461 13.879c.165 3.139-.165 6.278-.991 9.417.826-.33 1.817-.66 2.643-1.156l.112-.687c.432-2.745.702-5.49.55-8.235-.331-2.809-3.47-10.244-4.957-13.383l-.037-.09c-.097-.299.067-.586.367-.736.33-.165.661 0 .826.33 1.157 2.644 4.626 10.575 5.122 13.879.165 2.809 0 5.617-.496 8.26.992-.495 1.652-.99 2.479-1.651.495-2.974.495-5.783.33-8.757-.33-2.478-2.974-7.6-4.626-10.904l-.496-.992c-.165-.495 0-.826.33-.99l.09-.038c.3-.097.587.067.737.368l.495.99c1.818 3.636 4.461 8.592 4.792 11.236a50.976 50.976 0 0 1 0 7.104 13.255 13.255 0 0 0 1.817-5.617c.33-2.974-2.643-10.079-4.46-12.722-1.323-1.818-2.149-3.14-2.644-3.635zm-14.54 24.783a31.01 31.01 0 0 0-4.956 1.982h5.948c-.496-.495-.826-1.321-.991-1.982zm25.444 0c.496 0 .826.495.826.991s-.495.826-.991.826-.826-.33-.826-.991l.007-.104c.064-.437.524-.722.984-.722zM9.104 27.443c-.826 0-.991.33-.991 2.479v4.956c0 .992.66 1.652 1.652 1.818h5.392c.519-.002 1.382-.022 1.382-.33 0-.331-.66-.827-1.322-.827h-3.304c-.33 0-.66-.33-.66-.66 0-.331.33-.662.66-.662h3.47c1.487 0 1.487-.165 1.487-.495 0-.826-.827-.826-1.157-.826h-4.46c-.331 0-.662-.33-.662-.661 0-.33.33-.661.661-.661h4.394c.518-.002 1.389-.031 1.389-.496 0-.826-.496-.826-.661-.826h-4.626c-.33 0-.661-.33-.661-.66 0-.331.33-.662.66-.662h4.658c.154-.003.3-.051.3-.826 0-.165 0-.33-.166-.495zM26.287 6.626l-.547.22c-6.53 2.683-11.952 7.371-15.81 12.997.661-.495 1.487-.99 2.313-1.321h.496c.165 0 4.13 1.652 4.13 4.791 0 .826-.33 1.652-.826 2.148-.495.33-.826.66-1.321.66h1.652c1.817 0 2.974.992 3.304 3.14l.165.66c.33 1.322.33 1.983 0 2.479-.165.165-.495.33-.826.33h-1.156c.165.33.165.496.165.827 0 .66-.33 1.156-.826 1.486.33.33.496.827.496 1.157 1.652-.165 3.304-.165 4.791.165 1.817-2.974 3.8-5.948 5.948-8.591a2.292 2.292 0 0 1 0-1.487h-.33c-.662 0-1.157-.165-1.653-.496-.33-.33-.495-.66-.495-1.156 0-2.148.33-4.296 1.156-6.278l.165-.33c.826-2.149 1.983-5.123 1.652-6.28-.66-1.817-1.652-3.469-2.643-5.12zM58.504 8.94l-.66 1.983c.495.66 1.321 1.817 2.643 3.8C62.139 17.2 65.774 24.8 65.278 28.6c-.165 2.313-.991 4.626-2.148 6.609l.33.165c.331-.991 1.323-1.652 2.48-1.487h9.747C73.87 23.478 67.591 14.391 58.504 8.939zM18.191 28.104c0 .496-.165.826-.33 1.157.33.496.496 1.156.66 1.652v.496h.496c0-.33-.165-.826-.165-1.322l-.165-.66c-.165-.497-.33-.827-.496-1.323zm13.786-1.579c-.602-.598-.954-.867-2.055-.238-.33.33-.33.991 0 1.322.826.826 5.617 2.974 7.27 1.652.33-.33.33-.496.33-.496V28.6c-.33.33-.661.66-1.157.66-.991.166-2.313-.825-4.13-2.477zm-16.594-3.047l-.154.149c-.476.443-1.086.86-1.829 1.008-.496 0-.826.165-1.157.33h.827c.66.165 1.321 0 1.982-.33.33-.33.33-.661.33-1.157zm-.826-1.982c-.496.66-1.322.991-2.148 1.156-.992.165-2.644.991-2.809 1.818v.165c.165 0 .165.165.33.165.827-.826 1.983-1.322 3.14-1.487.826-.165 1.487-.991 1.652-1.322l.165-.165-.082-.082zm-2.314-1.487c-1.156.495-2.147 1.321-2.808 2.478.826-.66 1.817-.991 2.808-1.157.496-.165.992-.33 1.322-.66-.495-.33-.826-.496-1.322-.661zm21.644-3.8c1.487.165 2.809 2.478 2.809 2.478l-.661-.33-1.322-.661v.33c-.165.496-.33.826-.66.991.66 0 1.486-.165 2.147-.33-.66.33-1.322.496-1.983.66-.99 0-1.817-.33-2.478-.99l.991.165c-.165-.165-.33-.33-.33-.661 0-.165.165-.496.66-.661-.99.165-2.147.165-2.147.165.826-.66 1.817-1.156 2.974-1.156zm22.965-7.93H29.426l.826 1.817h25.94l.66-1.818zM40 3.816h-.33l2.147 2.644h4.296l1.652-1.818c-2.643-.495-5.122-.826-7.765-.826zM29.096 5.47l-1.157.33c0 .165.165.33.33.66h1.818l-.991-.99zm9.252-1.322L37.026 6.46h3.14l-1.818-2.313zm-1.487-.33c-2.148.165-4.13.66-6.278 1.156L32.07 6.46h3.304zm12.391 1.156L47.93 6.46h2.81l-1.488-1.487zm2.644.826l.66.66h1.157c-.496-.164-1.156-.495-1.817-.66z"/>
</svg>
