<svg xmlns="http://www.w3.org/2000/svg" width="80" height="80" viewBox="0 0 80 80">
    <path fill="#051E3D" fill-rule="evenodd" d="M36.564 10.782c.381-1.273 1.781-1.91 3.054-1.527l19.855 7c1.145.381 1.909 1.781 1.272 3.054L50.182 49.345C49.8 50.364 48.909 51 47.89 51c-.255 0-.51 0-.764-.127L44.2 49.855c-.127.636-.382 1.654-.51 2.672-.508 2.418-1.78 4.582-3.563 6.237-1.4 1.527-2.545 3.309-3.436 5.218-.127.763-.382 1.527-.51 2.29h3.183v5.092H21.545v-5.091h3.182c0-1.146-.127-2.418-.509-3.564a12.083 12.083 0 0 0-1.145-2.673l-.255-.381c-1.273-2.291-3.69-7.128-3.309-12.219.255-3.181 1.527-6.109 3.564-8.527 1.272-1.782 2.8-3.818 5.345-4.964zm-.382 24.436a8.541 8.541 0 0 0-4.71-1.018c-.381 0-.89 0-1.272.127-.255 0-.382.128-.636.128-.128 0-.382 0-.51.127-2.418.89-3.818 2.927-5.218 4.709-1.909 2.29-3.054 4.964-3.436 7.89-.382 4.71 2.036 9.292 3.182 11.583l.254.381c.51.891 1.019 1.91 1.273 2.928.382 1.4.51 2.672.51 4.072h9.29c.127-.89.382-1.781.636-2.672.891-2.037 2.164-3.818 3.691-5.473 1.655-1.527 2.8-3.564 3.31-5.727.254-1.146.381-2.291.381-2.291l-4.2-1.527c-.254 0-.382.127-.636.127l-.005.25c-.047 1.14-.42 1.947-1.013 2.423-.51.254-1.018.254-1.528.254-.254 1.273-1.145 2.291-2.29 2.927-.637.255-1.273.637-1.91.764-.381 1.145-1.018 2.29-1.781 3.31a9.61 9.61 0 0 1-1.782 1.4c-.127.126-.127.126-.255.126h-.053c-.136-.004-.344-.031-.456-.254-.127-.382 0-.764.255-.891a3.978 3.978 0 0 0 1.4-1.146c.509-.763.89-1.527 1.272-2.29h-1.909c-.381 0-.636-.255-.636-.637l.006-.1c.041-.326.283-.536.63-.536l.31.04c1.535.165 2.96-.223 4.272-1.058.891-.51 1.527-1.273 1.782-2.164 0 0-.127-.127-.255-.127L33 50.49c-2.418-.51-4.836 0-6.873 1.273-.127.127-.254.127-.382.127-.127 0-.381-.127-.509-.382-.127-.382 0-.764.255-.89l.302-.178a11.034 11.034 0 0 1 7.462-1.223c.381.127.763.255 1.272.382.891.255 1.528.51 1.91.255.381-.255.636-.51.508-2.037v-.254l-.381-.382c-1.019-1.146-2.546-2.673-4.71-2.418-1.781.127-3.563.636-5.218 1.4-.254.127-.636.127-.89-.128-.128-.254-.128-.636.127-.89l.385-.187c1.687-.793 3.578-1.35 5.47-1.468 2.8-.382 4.708 1.654 5.727 2.8.254.254.381.509.636.636.382.255 1.018-.509 1.018-.636.382-.636.382-1.4.255-2.036-.128-.764-.51-1.4-1.146-1.782l-.127-.128c-1.146-1.018-2.546-1.781-4.073-2.29-1.909-.382-4.073 0-5.727 1.145-.255.127-.764 0-.891-.255-.127-.254 0-.763.255-.89l.267-.178c1.979-1.265 4.287-1.71 6.478-1.222.764.254 1.527.636 2.29 1.018l.255.254c.637.255 1.273.764 1.782 1.146 2.037 1.527 2.546 1.527 2.928 1.527.254-.127.381-.255.509-.382.381-.382.636-.89.636-1.527v-.255c-.255-.381-.764-.89-1.145-1.272l-.382-.382a17.526 17.526 0 0 0-5.091-3.564zm2.673-24.945c-.51-.255-1.146 0-1.4.636L29.69 33.055h.127c2.291-.51 4.71-.255 6.873.89 1.468.734 2.87 1.6 4.11 2.599l-.037-.053c-.637-.891-1.146-1.782-1.4-2.8-.128-.255-.128-.51-.255-.764-.636-1.782-1.145-3.69-1.273-5.6-.254-1.527 0-3.054.891-4.327 1.018-1.145 2.546-1.655 4.073-1.273 1.273.255 2.164 1.146 2.673 2.291 1.145-.509 2.418-.636 3.563-.127 1.4.636 2.419 1.909 2.291 3.69-.127 1.528-.89 2.928-2.036 3.946-1.273 1.4-2.8 2.546-4.455 3.564l-.636.382c-.89.636-1.782 1.018-2.8 1.272l-.253.084c.354.3.694.612 1.017.935l.381.254c.51.382.891.891 1.146 1.4.127.255.254.637.382 1.018.127 1.528-.764 2.8-2.164 3.31-.382.127-.764 0-1.273-.128.255 1.146.128 2.291-.509 3.182v.127l7.51 2.673c.636.255 1.272 0 1.527-.636l10.563-30.037c.255-.636-.127-1.272-1.018-1.654z"/>
</svg>
