<svg xmlns="http://www.w3.org/2000/svg" width="62" height="62" viewBox="0 0 62 62">
    <path fill="#051E3D" fill-rule="evenodd" d="M49.83 42.324v.298c-.03.743-.236 1.426-.53 2.11a7.602 7.602 0 0 1-1.264 1.843c-.5.565-1.117 1.1-1.823 1.575-.676.476-1.47.922-2.322 1.308-1.646.773-3.616 1.397-5.82 1.813a38.22 38.22 0 0 1-7.144.654c-2.588 0-5.028-.238-7.232-.684-2.264-.416-4.263-1.07-5.91-1.872a15.527 15.527 0 0 1-2.322-1.338c-.705-.505-1.323-1.04-1.793-1.634a6.663 6.663 0 0 1-1.205-1.903 5.505 5.505 0 0 1-.441-2.17c0-.208 0-.386.03-.594l.029-10.581L.647 25.917c-.03-.03-.059-.03-.088-.06a1.381 1.381 0 0 1-.412-.415A1.24 1.24 0 0 1 0 24.877c0-.208.059-.386.147-.565.118-.178.235-.297.412-.416.029-.03.058-.03.088-.06l29.868-13.672c.176-.06.294-.089.47-.089.177 0 .294.03.47.09l29.898 13.672c.03.03.059.03.088.06.177.118.294.237.412.415.088.179.147.357.147.565 0 .208-.059.386-.147.565a1.381 1.381 0 0 1-.412.416c-.029.03-.058.03-.088.06l-5.791 2.615v10.492l1.088 2.14a.986.986 0 0 1 .117.506c0 .178-.03.356-.117.505l-1.147 2.289c0 .03-.03.03-.03.059a1.381 1.381 0 0 1-.41.416c-.177.09-.354.149-.56.149-.205 0-.382-.06-.558-.149a1.381 1.381 0 0 1-.412-.416c0-.03-.029-.03-.029-.06l-1.117-2.288a1.06 1.06 0 0 1-.118-.505c0-.179.03-.327.118-.506l.94-1.902v-9.69L49.86 31.15l-.03 11.175zm-35.85-.713c0 .06 0 .12-.03.181v.333c0 .454.088.908.264 1.332.176.454.47.907.822 1.3.382.455.852.909 1.41 1.302.587.424 1.233.817 1.967 1.18 1.527.727 3.347 1.302 5.373 1.725 2.085.424 4.375.636 6.812.636 2.407 0 4.668-.212 6.694-.636 2.026-.393 3.817-.938 5.344-1.664.734-.363 1.38-.726 1.967-1.15.558-.393 1.057-.817 1.439-1.24.382-.424.675-.848.88-1.302.177-.424.294-.847.324-1.271v-.212l.029-10.32-16.149 7.536c-.176.06-.293.09-.47.09-.176 0-.293-.03-.47-.09L14.01 31.775l-.03 9.836zM30.984 37.2l19.042-8.692-19.335-2.284a1.277 1.277 0 0 1-.558-.208c-.146-.148-.264-.267-.352-.474a.922.922 0 0 1-.088-.564 1.06 1.06 0 0 1 .235-.564c.117-.148.264-.267.44-.356.176-.089.352-.118.558-.089l23.09 2.7 4.108-1.869-27.14-12.4-27.11 12.4 27.11 12.4z"/>
</svg>
