<svg xmlns="http://www.w3.org/2000/svg" width="62" height="62" viewBox="0 0 62 62">
    <path fill="#051E3D" fill-rule="evenodd" d="M35.438 7.446c2.437 0 4.44 1.996 4.44 4.426v8.22H54.46c2.437 0 4.439 1.996 4.439 4.426v17.705c0 2.43-2.002 4.427-4.439 4.427H52.6l-.04 7.587a1.27 1.27 0 0 1-2.299.731l-5.944-8.318H26.561c-2.437 0-4.438-1.997-4.438-4.427v-8.22h-4.439l-5.945 8.32a1.27 1.27 0 0 1-2.298-.732l-.04-7.588H7.54c-2.437 0-4.439-1.996-4.439-4.426V11.872c0-2.43 2.002-4.426 4.439-4.426h27.9zm.172 2.611H7.616c-1.08 0-1.909.825-1.909 1.898v17.716c0 1.073.83 1.898 1.91 1.898h3.14a1.27 1.27 0 0 1 1.273 1.246l.02 4.923 4.056-5.655a1.275 1.275 0 0 1 1.034-.514h18.47c1.08 0 1.909-.825 1.909-1.898V11.955c0-1.073-.83-1.898-1.909-1.898zm18.774 12.535H39.751v6.96c0 2.431-2.009 4.429-4.454 4.429H24.481v8.225c0 1.073.83 1.898 1.909 1.898h18.47c.408-.003.792.188 1.034.514l4.056 5.655.02-4.923a1.27 1.27 0 0 1 1.272-1.246h3.142c1.08 0 1.909-.825 1.909-1.898V24.49c0-1.073-.83-1.898-1.91-1.898h.001z"/>
</svg>
