<svg xmlns="http://www.w3.org/2000/svg" width="17" height="16" viewBox="0 0 17 16">
    <path fill="#FFF" fill-rule="evenodd" d="M5.558 5.333a2.67 2.67 0 0 1 2.667-2.666 2.67 2.67 0 0 1 2.667 2.666A2.67 2.67 0 0 1 8.225 8a2.67 2.67 0 0 1-2.667-2.667m5.084 3.18a3.995 3.995 0 0 0 1.583-3.18c0-2.206-1.794-4-4-4s-4 1.794-4 4c0 1.297.623 2.448 1.583 3.18A6.003 6.003 0 0 0 2.225 14a.666.666 0 1 0 1.333 0 4.673 4.673 0 0 1 4.667-4.667A4.673 4.673 0 0 1 12.892 14a.666.666 0 1 0 1.333 0 6.003 6.003 0 0 0-3.583-5.487"/>
</svg>
