<svg xmlns="http://www.w3.org/2000/svg" width="80" height="80" viewBox="0 0 80 80">
    <path fill="#000" fill-rule="evenodd" d="M37.082 9c.267 0 .4.135.533.135l6.538 2.423.1.007c.235.03.483.162.833.397h.134c.133 0 .4.135.534.27l2.668.942 6.27 1.078c1.068.134 1.868.942 2.135 2.02l8.405 3.097c1.334.404 2.134 2.02 1.6 3.231L50.424 68.25c-.133.269-.267.538-.4.673l-.134.134c-.133.27-.4.404-.533.539h-.134c-.133.135-.267.27-.533.27h-.134c-.133.134-.4.134-.667.134h-.4c-.267 0-.4-.135-.534-.135L34.68 65.422H14.668c-1.467 0-2.668-1.212-2.668-2.694V14.252c0-1.482 1.2-2.694 2.668-2.694h8.005l.133-.134c0-.27.134-.404.134-.539l.133-.134c0-.135.134-.135.134-.27.133 0 .133-.134.133-.134 0-.135.134-.27.134-.27l.133-.134.267-.135.133-.135.267-.134.133-.135.267-.135h1.068l8.538 1.347c0-.27.133-.404.267-.539l.133-.134c.134-.27.4-.404.534-.539h.133c.134-.135.267-.27.534-.27h.133c.134-.134.4-.134.667-.134zm19.611 8.618l-8.271 47.4c0 .269-.134.404-.134.538l-.133.135c0 .135-.133.135-.133.27l-.134.134c0 .135 0 .135-.133.27l-.134.134-.266.135-.134.134-.267.135-.133.135-.267.134h-1.067l-3.336-.538 5.337 2.02c.133.134.267.134.4.134.534 0 1.067-.404 1.2-.943l16.41-45.514c.134-.404.134-.673 0-1.077-.266-.27-.533-.539-.8-.673l-8.005-2.963zm-10.006-3.366v48.476c0 1.482-1.2 2.694-2.668 2.694h-1.467l2.935.538h.267c.667 0 1.2-.404 1.334-1.077l8.405-47.669.016-.141c.054-.744-.456-1.348-1.084-1.475l-6.403-1.077-1.335-.27zm-2.61-1.347H14.668c-.8 0-1.334.539-1.334 1.347v48.476c0 .808.534 1.347 1.334 1.347H44.02c.8 0 1.334-.539 1.334-1.347V14.252c0-.135 0-.27-.133-.27 0-.134 0-.269-.134-.404l-.066-.066-.2-.203-.134-.135-.133-.134c-.267-.135-.4-.135-.534-.135zM29.498 27c3.966 3.486 9.914 9.251 10.443 14.346.396 3.084-1.19 5.23-4.759 5.498-1.85.134-3.569-.805-4.362-2.414v-.134h-.132v.805A20.232 20.232 0 0 0 34.125 51c-1.454-.268-3.04-.268-4.627-.268-1.586 0-3.04.134-4.626.268 1.454-1.743 2.644-3.888 3.437-6.034v-.804h-.132v.134c-.794 1.743-2.512 2.682-4.362 2.413-3.437-.268-5.155-2.547-4.759-5.497.529-4.96 6.477-10.726 10.442-14.212zm7.183-16.653c-.4 0-.8.269-1.067.538l3.87.673h.666l-3.068-1.077c-.134-.134-.267-.134-.4-.134zm-11.073.134h-.267c-.667 0-1.2.404-1.334 1.077h7.872l-6.27-1.077z"/>
</svg>
