<svg xmlns="http://www.w3.org/2000/svg" width="80" height="80" viewBox="0 0 80 80">
    <path fill="#051E3D" fill-rule="evenodd" d="M55.759 13.782l.172.006c1.482.094 2.622 1.39 2.622 2.788v42.471c0 1.341-.894 2.57-2.235 2.794a2.871 2.871 0 0 1-2.236 2.235c-.335 1.342-1.453 2.236-2.794 2.236H24.465a2.767 2.767 0 0 1-2.794-2.794v-42.47c0-1.342.894-2.46 2.235-2.795a2.871 2.871 0 0 1 2.235-2.235c.335-1.23 1.453-2.236 2.794-2.236H55.76zm-31.853 5.7c-.67.224-1.118.894-1.118 1.565v42.47c0 .895.783 1.677 1.677 1.677h26.823c.67 0 1.341-.447 1.565-1.118H26.7a2.767 2.767 0 0 1-2.794-2.794zm2.235-2.235c-.447.112-.894.559-1.006 1.006-.111.223-.111.335-.111.559v42.47c0 .894.782 1.677 1.676 1.677h26.824c.223 0 .335 0 .558-.112.447-.112.783-.559 1.006-1.006H28.935a2.767 2.767 0 0 1-2.794-2.794zM55.76 14.9H28.935c-.67 0-1.34.447-1.564 1.118-.112.223-.112.335-.112.558v42.471c0 .894.782 1.677 1.676 1.677H55.76c.223 0 .335 0 .559-.112.67-.224 1.117-.894 1.117-1.565v-42.47c0-.895-.782-1.677-1.676-1.677zM42.682 46.418c.56-.112 1.118 0 1.565.223.335.112.67.335 1.006.67.335.336.559.671.559 1.118.112.336.223.783.223 1.118 0 .335-.111.782-.223 1.118-.112.335-.336.67-.56 1.006-.223.223-.67.558-1.005.67-.559.112-1.006.224-1.565.224h-2.235v3.464h-2.123v-9.611zm.112 1.453h-2.347v2.905h2.347c.224 0 .335-.111.559-.223a.873.873 0 0 0 .447-.447l.066-.153c.155-.418.133-.915-.066-1.412a.873.873 0 0 0-.447-.447.854.854 0 0 0-.559-.223zM40 33.006l2.235 6.594 2.236-6.594h2.905v9.612h-2.011V35.8l-2.347 6.818h-1.565l-2.347-6.706h-.112v6.706h-1.9v-9.612H40zm3.241-13.3v9.612h-2.123v-9.612h2.123z"/>
</svg>
