<svg xmlns="http://www.w3.org/2000/svg" width="80" height="80" viewBox="0 0 80 80">
    <path fill="#051E3D" fill-rule="evenodd" d="M39.827 8.519c17.124 0 31.135 14.01 31.135 31.135 0 17.124-14.01 31.135-31.135 31.135-17.124 0-31.135-14.01-31.135-31.135 0-17.124 14.01-31.135 31.135-31.135zm0 1.73c-16.26 0-29.405 13.146-29.405 29.405 0 16.26 13.146 29.405 29.405 29.405 16.087 0 29.405-13.145 29.405-29.405S56.086 10.25 39.827 10.25zm0 4.324c13.838 0 24.908 11.243 25.081 25.081 0 13.838-11.243 25.081-25.081 25.081s-25.081-11.243-25.081-25.08c0-13.839 11.243-25.082 25.081-25.082zm3.287 42.897c-1.038.173-2.076.346-3.114.346-1.384 0-2.595 0-3.805-.346v5.19l.519.073c1.037.145 2.075.272 3.113.272 1.038 0 2.076 0 3.114-.173h.173zm11.589-7.61a16.165 16.165 0 0 1-4.844 4.843l3.806 3.805.37-.302c1.604-1.33 3.176-2.947 4.3-4.714zm-30.098-.346L20.8 53.319l.35.432c1.296 1.584 2.75 3.143 4.493 4.411l3.806-3.632c-1.903-1.384-3.633-3.114-4.844-5.016zm15.222-26.292c-8.995 0-16.432 7.437-16.432 16.432 0 8.995 7.437 16.432 16.432 16.432 8.995 0 16.432-7.437 16.432-16.432 0-8.995-7.437-16.432-16.432-16.432zm-4.151 8.994c.346-.346.865-.519 1.21-.173l10.379 6.92c.173 0 .173.172.346.172.346.346.173.865-.173 1.21l-10.379 6.92c-.173.173-.345.173-.518.173 0 0-.173-.173-.346-.173-.346 0-.52-.346-.52-.692zm27.156 3.806h-5.189c.173 1.383.346 2.594.346 3.805 0 1.038-.173 2.076-.346 3.114h5.362c0-1.038.173-2.076.173-3.114 0-1.384-.173-2.595-.346-3.805zm-40.821-.173h-5.19c-.172 1.383-.345 2.594-.345 3.805 0 1.038 0 2.249.346 3.114h5.189c-.173-1.038-.346-2.076-.346-3.114 0-1.384 0-2.595.346-3.805zm3.805-14.876l-.432.353c-1.583 1.32-3.143 2.919-4.411 4.663l3.632 3.633c1.211-1.903 2.94-3.46 4.844-4.844l-3.633-3.805zm27.503-.346l-3.633 3.632c1.903 1.384 3.633 2.941 5.017 4.844l3.632-3.633c-1.384-1.902-3.113-3.46-5.016-4.843zm-13.492-4.324c-1.384 0-2.595.173-3.805.346v5.189c1.21-.173 2.594-.346 3.805-.346 1.038 0 2.076.173 3.114.346v-5.19c-1.038-.172-2.076-.345-3.114-.345z"/>
</svg>
