<?xml version="1.0" encoding="UTF-8"?>
<svg width="210px" height="50px" viewBox="0 0 210 50" version="1.1" xmlns="http://www.w3.org/2000/svg" xmlns:xlink="http://www.w3.org/1999/xlink">
    <!-- Generator: sketchtool 60.1 (101010) - https://sketch.com -->
    <title>8DC8689A-6FD4-43DF-B3BF-16005F2ABDC9</title>
    <desc>Created with sketchtool.</desc>
    <g id="Asset-Artboard-Page" stroke="none" stroke-width="1" fill="none" fill-rule="evenodd">
        <g id="BridgeBase-Logo" fill="#FFFFFF">
            <g id="Mask" transform="translate(31.000000, 12.000000)" fill-rule="nonzero">
                <path d="M0.066,2.269 L7.639,2.269 C8.5265705,2.26957568 9.41303187,2.33172488 10.292,2.455 C11.1274834,2.56262314 11.9378885,2.81471156 12.687,3.2 C13.3851866,3.56482808 13.9778298,4.10306243 14.408,4.763 C14.848,5.433 15.068,6.32233333 15.068,7.431 C15.068,8.57766667 14.7476667,9.529 14.107,10.285 C13.4663333,11.041 12.62,11.581 11.568,11.905 L11.568,11.963 C12.2019664,12.0477559 12.817583,12.2366306 13.39,12.522 C13.9208749,12.7869812 14.3987525,13.1469146 14.8,13.584 C15.1951274,14.022662 15.5008422,14.5342247 15.7,15.09 C15.9125719,15.6786031 16.0192188,16.3002024 16.0151204,16.926 C16.0151204,17.9973333 15.7856667,18.8913333 15.327,19.608 C14.8769414,20.3167678 14.2678145,20.9108291 13.548,21.343 C12.7914885,21.7949616 11.9637227,22.1151798 11.1,22.29 C10.208725,22.4793816 9.30017207,22.5755656 8.389,22.577 L0.066,22.577 L0.066,2.269 Z M4.541,10.3860025 L7.782,10.3860025 C8.12459452,10.3863618 8.46612001,10.3477808 8.8,10.271 C9.1194356,10.2000366 9.42401552,10.0738052 9.7,9.898 C9.96837017,9.7252744 10.1899297,9.48894423 10.345,9.21 C10.5147762,8.89274247 10.598877,8.53669256 10.589,8.177 C10.6247724,7.47039719 10.2432848,6.80836945 9.614,6.485 C9.30791589,6.32548744 8.97904387,6.21417691 8.639,6.155 C8.28878251,6.08940548 7.93330613,6.05593313 7.577,6.055 L4.537,6.055 L4.541,10.3860025 Z M4.541,18.7860023 L8.556,18.7860023 C8.9069098,18.7863371 9.25686621,18.7494643 9.6,18.676 C9.94268236,18.6044317 10.2687427,18.4687146 10.561,18.276 C10.8477367,18.0834585 11.0870726,17.8283948 11.261,17.53 C11.4520451,17.189121 11.5464363,16.8025663 11.534,16.412 C11.534,15.934 11.4143333,15.5466667 11.175,15.25 C10.9360603,14.95363 10.6266262,14.7218983 10.275,14.576 C9.89890343,14.4191355 9.50387461,14.3122255 9.1,14.258 C8.71070122,14.2030522 8.31815063,14.1743208 7.925,14.172 L4.541,14.172 L4.541,18.7860023 Z" id="Shape"></path>
                <path d="M18.108,8.636 L22.408,8.636 L22.408,10.874 L22.465,10.874 C22.9236667,10.0126667 23.4686667,9.367 24.1,8.937 C24.7313333,8.507 25.525,8.292 26.481,8.292 C26.729,8.292 26.9776667,8.30166667 27.227,8.321 C27.4594831,8.33724481 27.6898717,8.37575454 27.915,8.436 L27.915,12.365 C27.6203995,12.2723656 27.3196606,12.2005224 27.015,12.15 C26.7067071,12.1015545 26.3950757,12.07748 26.083,12.078 C25.261,12.078 24.611,12.193 24.133,12.423 C23.6801146,12.6302382 23.2964939,12.9635195 23.028,13.383 C22.7568356,13.8339083 22.586279,14.3380737 22.528,14.861 C22.447759,15.4887543 22.409341,16.1211488 22.413,16.754 L22.413,22.577 L18.113,22.577 L18.108,8.636 Z" id="Path"></path>
                <path d="M29.5,4.248 C29.4983124,3.05495237 30.3398658,2.02695865 31.5097506,1.79300325 C32.6796354,1.55904785 33.851814,2.18433224 34.3090816,3.28627227 C34.7663492,4.38821229 34.3812691,5.65970611 33.3894548,6.32278227 C32.3976405,6.98585843 31.0755029,6.85572294 30.232,6.012 C29.7544761,5.55058365 29.4894628,4.91194512 29.5,4.248 L29.5,4.248 Z M29.845,8.636 L34.145,8.636 L34.145,22.577 L29.845,22.577 L29.845,8.636 Z" id="Shape"></path>
                <path d="M51.869,22.577 L47.91,22.577 L47.91,20.741 L47.853,20.741 C47.656224,21.0177597 47.4302584,21.2725576 47.179,21.501 C46.8826268,21.7718244 46.5553699,22.0067781 46.204,22.201 C45.8131361,22.4183559 45.3992428,22.5914263 44.97,22.717 C44.5184261,22.8504976 44.0498926,22.9176838 43.579,22.917 C42.6158726,22.9302905 41.659912,22.7497088 40.768,22.386 C39.9480254,22.0502103 39.2089659,21.5436409 38.6,20.9 C37.986331,20.2417689 37.5127571,19.4657473 37.208,18.619 C36.8743555,17.689024 36.7094344,16.7069475 36.721,15.719 C36.7166992,14.7678043 36.8666445,13.822203 37.165,12.919 C37.4439302,12.0625424 37.8710829,11.2617157 38.427,10.553 C38.967643,9.86857448 39.647252,9.30655079 40.421,8.904 C41.2464104,8.48301383 42.1625659,8.27114428 43.089,8.287 C43.9440369,8.28120867 44.7936089,8.42364986 45.6,8.708 C46.3646695,8.97804818 47.0297867,9.47305153 47.508,10.128 L47.565,10.128 L47.565,0.892 L51.865,0.892 L51.869,22.577 Z M47.9100176,15.607 C47.9100176,14.555 47.61,13.704 47.01,13.054 C46.41,12.404 45.5636667,12.0786667 44.471,12.078 C43.381,12.078 42.535,12.4033333 41.933,13.054 C41.331,13.7046667 41.031,14.5556667 41.0329901,15.607 C41.0329901,16.6576667 41.333,17.5083333 41.933,18.159 C42.5329901,18.8096667 43.379,19.135 44.471,19.135 C45.561,19.135 46.4073333,18.8096667 47.01,18.159 C47.6126667,17.5083333 47.9126667,16.6576667 47.9100176,15.607 Z" id="Shape"></path>
                <path d="M69.939,21.4 C69.939,24.038 69.2743333,26.041 67.945,27.409 C66.6156667,28.777 64.5936667,29.4606667 61.879,29.4600023 C60.6432061,29.4606533 59.4113279,29.3210941 58.207,29.044 C56.9903653,28.760299 55.8532364,28.2062605 54.88,27.423 L57.261,23.866 C57.8990828,24.4015863 58.6085435,24.8458407 59.369,25.186 C60.1338438,25.5167289 60.9597688,25.6826635 61.793,25.673 C63.1123333,25.673 64.0826667,25.3526667 64.704,24.712 C65.3253333,24.0713333 65.6363333,23.254 65.637,22.26 L65.637,20.913 L65.579,20.913 C65.1149446,21.557527 64.4715864,22.0513479 63.729,22.333 C63.0663603,22.5957416 62.3617219,22.7366693 61.649,22.749 C60.6858797,22.7622086 59.7299352,22.58163 58.838,22.218 C58.0189216,21.8794058 57.2810064,21.3708749 56.673,20.726 C56.059448,20.068244 55.5861772,19.2925018 55.282,18.446 C54.9474513,17.5162336 54.782174,16.5340529 54.794,15.546 C54.7934074,14.6276882 54.943626,13.7155121 55.239,12.846 C55.5164476,12.004063 55.9436335,11.2191387 56.5,10.529 C57.0466719,9.85850326 57.7249604,9.30715982 58.493,8.909 C59.3184104,8.48801383 60.2345659,8.27614428 61.161,8.292 C62.2175834,8.28004027 63.261117,8.52616317 64.201,9.009 C64.5730163,9.19861507 64.9200116,9.43375229 65.234,9.709 C65.4917953,9.93503415 65.7226547,10.1900532 65.922,10.469 L65.98,10.469 L65.98,8.636 L69.938,8.636 L69.939,21.4 Z M59.0999733,15.52 C59.0964205,16.4184094 59.4525714,17.2808779 60.089,17.915 C60.4045792,18.2310011 60.7736061,18.4886428 61.179,18.676 C61.6066868,18.8707744 62.0720854,18.968771 62.542,18.963 C63.006758,18.9655216 63.4665768,18.8676225 63.89,18.676 C64.2996562,18.4909171 64.6723528,18.2330788 64.99,17.915 C65.6261856,17.2803335 65.9837189,16.4186288 65.9837189,15.52 C65.9837189,14.6213712 65.6261856,13.7596665 64.99,13.125 C64.6717778,12.8078695 64.2992,12.5504521 63.89,12.365 C63.4665768,12.1733775 63.006758,12.0754784 62.542,12.078 C62.0720854,12.072229 61.6066868,12.1702256 61.179,12.365 C60.7740674,12.5527274 60.4051568,12.8099495 60.089,13.125 C59.4525714,13.7591221 59.0964205,14.6215906 59.0999733,15.52 L59.0999733,15.52 Z" id="Shape"></path>
                <path d="M86.575,20.167 C85.8842414,21.0487915 84.9881764,21.7481342 83.965,22.204 C82.9393645,22.6757321 81.8239193,22.9203113 80.695,22.921 C79.6638789,22.9277785 78.6396036,22.7531169 77.669,22.405 C76.7559623,22.0812956 75.9166087,21.5788392 75.2,20.927 C74.4966395,20.2795897 73.9351548,19.4933749 73.551,18.618 C72.7470546,16.6908159 72.7470546,14.5221841 73.551,12.595 C73.9351548,11.7196251 74.4966395,10.9334103 75.2,10.286 C75.9160183,9.63438742 76.7546722,9.13194299 77.667,8.808 C78.6376036,8.45988312 79.6618789,8.28522152 80.693,8.292 C81.622213,8.27946926 82.544363,8.45498729 83.404,8.808 C84.1953443,9.13799131 84.9014284,9.64336287 85.469,10.286 C86.0512447,10.9617869 86.4931627,11.7467013 86.769,12.595 C87.0863779,13.5669788 87.2414545,14.5846055 87.228,15.607 L87.228,16.954 L77.246,16.954 C77.418,17.7766667 77.791,18.4316667 78.365,18.919 C78.939,19.4063333 79.6463333,19.6503333 80.487,19.651 C81.195,19.651 81.7926667,19.4933333 82.28,19.178 C82.7765405,18.85342 83.2090828,18.4401997 83.556,17.959 L86.575,20.167 Z M82.932,14.029 C82.9638435,13.3344976 82.7038825,12.6583091 82.215,12.164 C81.7183333,11.648 81.0776667,11.39 80.293,11.39 C79.8613001,11.3817703 79.4322855,11.4596184 79.031,11.619 C78.6885378,11.7593771 78.3731545,11.9583528 78.099,12.207 C77.8455112,12.4415404 77.6415077,12.7244252 77.499,13.039 C77.3566654,13.3509049 77.2739098,13.6866752 77.255,14.029 L82.932,14.029 Z" id="Shape"></path>
                <path d="M91.107,2.269 L96.958,2.269 C97.7363404,2.27009003 98.5133941,2.33228108 99.282,2.455 C100.030204,2.56672467 100.747605,2.83047519 101.39,3.23 C102.026108,3.63806563 102.548923,4.20009195 102.91,4.864 C103.302,5.56333333 103.498,6.486 103.498,7.632 C103.517283,8.61167925 103.192438,9.56710579 102.58,10.332 C101.968,11.0966667 101.059667,11.6033333 99.855,11.852 L99.855,11.909 C100.490167,11.9574708 101.111748,12.1179444 101.691,12.383 C102.231371,12.6308041 102.718407,12.9813072 103.125,13.415 C103.535642,13.8588525 103.852619,14.3809126 104.057,14.95 C104.282524,15.5750889 104.394288,16.2355122 104.387,16.9 C104.387,18.0666667 104.162333,19.018 103.713,19.754 C103.295013,20.4589369 102.714976,21.0540573 102.021,21.49 C101.3438,21.9100353 100.594943,22.2015777 99.812,22.35 C99.0802903,22.4968734 98.3362798,22.5738862 97.59,22.58 L91.107,22.58 L91.107,2.269 Z M93,11.046 L96.93,11.046 C97.9053333,11.046 98.6986667,10.9263333 99.31,10.687 C99.9213333,10.4476667 100.399333,10.156 100.744,9.812 C101.062969,9.50947858 101.300022,9.13101904 101.433,8.712 C101.541136,8.36332034 101.599051,8.00101442 101.605,7.636 C101.605,6.92933333 101.485667,6.34133333 101.247,5.872 C101.025252,5.42479856 100.694828,5.04039247 100.286,4.754 C99.8609017,4.46681564 99.3829842,4.26694688 98.88,4.166 C98.3236648,4.04902291 97.7564941,3.99136725 97.188,3.994 L93,3.994 L93,11.046 Z M93,20.855 L97.331,20.855 C98.4403333,20.855 99.3343333,20.7216667 100.013,20.455 C100.691667,20.1883333 101.212667,19.855 101.576,19.455 C101.916679,19.0929487 102.16743,18.6558471 102.308,18.179 C102.424198,17.782463 102.486754,17.3721476 102.494,16.959 C102.494,16.2136667 102.350667,15.5733333 102.064,15.038 C101.794849,14.5237305 101.412185,14.0774611 100.945,13.733 C100.474533,13.3931098 99.9443069,13.1447888 99.382,13.001 C98.8062852,12.8491731 98.2133981,12.7722054 97.618,12.772 L93,12.772 L93,20.855 Z" id="Shape"></path>
                <path d="M118.987,17.012 C118.987,17.662 118.991667,18.2453333 119.001,18.762 C119.010333,19.2786667 119.025,19.7566667 119.045,20.196 C119.063,20.636 119.086667,21.047 119.116,21.429 C119.145333,21.811 119.188667,22.1936667 119.246,22.577 L117.639,22.577 C117.519162,21.8660375 117.46161,21.1459714 117.467,20.425 L117.41,20.425 C116.912,21.2863333 116.295333,21.9173333 115.56,22.318 C114.824667,22.7186667 113.891333,22.9186667 112.76,22.9180017 C112.189173,22.9182401 111.620626,22.8459957 111.068,22.703 C110.532141,22.5681324 110.02615,22.3344675 109.576,22.014 C109.1312,21.6947364 108.763538,21.2799207 108.5,20.8 C108.223333,20.3026667 108.084667,19.7003333 108.084,18.993 C108.084,17.9796667 108.342333,17.1766667 108.859,16.584 C109.376381,15.9904862 110.031067,15.5325149 110.766,15.25 C111.539306,14.9493623 112.350198,14.7562285 113.176,14.676 C114.026,14.59 114.776333,14.547 115.427,14.547 L117.435,14.547 L117.435,13.747 C117.435,12.5996667 117.081333,11.7773333 116.374,11.28 C115.666667,10.7826667 114.777333,10.534 113.706,10.534 C112.220524,10.5178811 110.781058,11.0489599 109.662,12.026 L108.662,10.85 C109.331166,10.2150244 110.135199,9.73951012 111.014,9.459 C111.88211,9.15474589 112.794167,8.99462938 113.714,8.985 C115.321333,8.985 116.602667,9.363 117.558,10.119 C118.513333,10.875 118.991333,12.094 118.992,13.776 L118.987,17.012 Z M115.545,15.9219727 C114.839865,15.9206617 114.135494,15.968444 113.437,16.065 C112.806575,16.1481076 112.189491,16.3121256 111.601,16.553 C111.101363,16.7522498 110.655914,17.0668056 110.301,17.471 C109.96878,17.8734267 109.795211,18.3834629 109.813,18.905 C109.806572,19.2815763 109.900818,19.6530385 110.086,19.981 C110.259145,20.2876483 110.498235,20.5520135 110.786,20.755 C111.079063,20.9589244 111.403277,21.1139392 111.746,21.214 C112.095136,21.3184358 112.457579,21.3716569 112.822,21.372 C113.74,21.372 114.495333,21.2386667 115.088,20.972 C115.636288,20.7381308 116.122492,20.3796404 116.508,19.925 C116.859445,19.4993086 117.109727,18.9994283 117.24,18.463 C117.372505,17.9229943 117.439653,17.3690248 117.44,16.813 L117.44,15.924 L115.545,15.9219727 Z" id="Shape"></path>
                <path d="M123.605,19.192 C123.956617,19.8878167 124.519039,20.4547879 125.212,20.812 C125.900033,21.180399 126.668547,21.3727854 127.449,21.372 C127.818982,21.3706279 128.186573,21.3126226 128.539,21.2 C128.888624,21.0920561 129.218047,20.9271759 129.514,20.712 C129.794957,20.5070697 130.032814,20.2488247 130.214,19.952 C130.398127,19.6447991 130.492365,19.2920986 130.486,18.934 C130.486,18.322 130.29,17.863 129.898,17.557 C129.46421,17.2298895 128.973115,16.9867164 128.45,16.84 C127.828606,16.6585551 127.19764,16.5116635 126.56,16.4 C125.907916,16.2872401 125.272154,16.0947988 124.667,15.827 C124.109818,15.5808524 123.614736,15.2132139 123.218,14.751 C122.826,14.2923333 122.63,13.642 122.63,12.8 C122.615261,12.21095 122.753052,11.6280934 123.03,11.108 C123.289231,10.6402589 123.646774,10.2342701 124.078,9.918 C124.51485,9.59983105 125.005306,9.36273175 125.526,9.218 C126.057575,9.06531008 126.60793,8.98799988 127.161,8.98799988 C128.251,8.98799988 129.193,9.188 129.987,9.588 C130.781,9.98799988 131.397333,10.619 131.836,11.481 L130.288,12.399 C130.009208,11.8355873 129.589667,11.3537016 129.07,11 C128.582,10.684 127.946,10.526 127.162,10.526 C126.836515,10.5288989 126.51304,10.5773697 126.201,10.67 C125.882882,10.7581263 125.579585,10.8929248 125.301,11.07 C125.033462,11.24105 124.804027,11.4653785 124.627,11.729 C124.444403,11.9999478 124.349134,12.3203034 124.354,12.647 C124.354,13.2396667 124.55,13.6793333 124.942,13.966 C125.381105,14.2752243 125.871763,14.5037915 126.391,14.641 C127.013941,14.8140876 127.645885,14.9529618 128.284,15.057 C128.936497,15.1607844 129.572794,15.3486822 130.177,15.616 C130.74208,15.8680585 131.238842,16.2513433 131.626,16.734 C132.017333,17.222 132.213,17.9153333 132.213,18.814 C132.228384,19.4339346 132.095715,20.0486009 131.826,20.607 C131.573509,21.1071815 131.210718,21.5434876 130.765,21.883 C130.304803,22.232663 129.784596,22.4953083 129.23,22.658 C128.643523,22.8318962 128.034709,22.9188215 127.423,22.916 C126.340519,22.929734 125.26835,22.7043735 124.283,22.256 C123.349586,21.8314123 122.578045,21.1170353 122.083,20.219 L123.605,19.192 Z" id="Path"></path>
                <path d="M147.5,20.081 C146.833333,21.095 146.006333,21.8216667 145.019,22.261 C143.992717,22.7093026 142.882846,22.9342765 141.763,22.921 C140.819766,22.9344781 139.883375,22.7590322 139.009,22.405 C138.208327,22.0753245 137.485502,21.5817465 136.887,20.956 C136.285414,20.3213695 135.821388,19.5693272 135.524,18.747 C135.199372,17.8410115 135.03919,16.8843195 135.051,15.922 C135.041225,14.9817494 135.206365,14.0478779 135.538,13.168 C135.846998,12.3526044 136.315077,11.6068048 136.915,10.974 C137.508961,10.3521626 138.220802,9.85482544 139.009,9.511 C139.851505,9.14966463 140.760347,8.96878196 141.677,8.98 C142.690333,8.98 143.584333,9.157 144.359,9.511 C145.098849,9.84044698 145.762708,10.3191059 146.309,10.917 C146.833084,11.4966328 147.237795,12.1738702 147.5,12.91 C147.763324,13.6365308 147.898662,14.4032228 147.9,15.176 L147.9,16.381 L136.771,16.381 C136.786991,16.8515766 136.85917,17.3185553 136.986,17.772 C137.143701,18.3661203 137.411318,18.9254356 137.775,19.421 C138.1846,19.9825874 138.707117,20.4523083 139.309,20.8 C139.950333,21.1833333 140.777667,21.3746667 141.791,21.374 C142.680011,21.3717803 143.555393,21.155336 144.343,20.743 C145.124069,20.3595294 145.780695,19.7628808 146.237,19.022 L147.5,20.081 Z M146.18,14.832 C146.184045,14.257801 146.061828,13.6897313 145.822,13.168 C145.585428,12.6565374 145.254277,12.19442 144.846,11.806 C144.421969,11.405701 143.925871,11.089447 143.384,10.874 C142.814581,10.6430709 142.205456,10.5258662 141.591,10.529 C140.653667,10.529 139.874333,10.7203333 139.253,11.103 C138.679127,11.4422386 138.17733,11.8906963 137.776,12.423 C137.443049,12.861858 137.181494,13.3505441 137.001,13.871 C136.847667,14.3376667 136.771333,14.658 136.771996,14.832 L146.18,14.832 Z" id="Shape"></path>
            </g>
            <rect id="LOGO-COLOR" x="0" y="0" width="210" height="50"></rect>
        </g>
    </g>
</svg>